<svg width="32" height="32" viewBox="0 0 32 32" fill="none" xmlns="http://www.w3.org/2000/svg">
<path d="M28 28V25.3333C28 23.4933 27.252 21.824 26.048 20.6187C24.844 19.4133 23.1733 18.6667 21.3333 18.6667H10.6667C8.82667 18.6667 7.15733 19.4147 5.952 20.6187C4.74667 21.8227 4 23.4933 4 25.3333V28C4 28.736 4.59733 29.3333 5.33333 29.3333C6.06933 29.3333 6.66667 28.736 6.66667 28V25.3333C6.66667 24.228 7.11333 23.2307 7.83867 22.5053C8.564 21.78 9.56133 21.3333 10.6667 21.3333H21.3333C22.4387 21.3333 23.436 21.78 24.1613 22.5053C24.8867 23.2307 25.3333 24.228 25.3333 25.3333V28C25.3333 28.736 25.9307 29.3333 26.6667 29.3333C27.4027 29.3333 28 28.736 28 28ZM22.6667 9.33332C22.6667 7.49332 21.9187 5.82399 20.7147 4.61866C19.5107 3.41332 17.84 2.66666 16 2.66666C14.16 2.66666 12.4907 3.41466 11.2853 4.61866C10.08 5.82266 9.33333 7.49332 9.33333 9.33332C9.33333 11.1733 10.0813 12.8427 11.2853 14.048C12.4893 15.2533 14.16 16 16 16C17.84 16 19.5093 15.252 20.7147 14.048C21.92 12.844 22.6667 11.1733 22.6667 9.33332ZM20 9.33332C20 10.4387 19.5533 11.436 18.828 12.1613C18.1027 12.8867 17.1053 13.3333 16 13.3333C14.8947 13.3333 13.8973 12.8867 13.172 12.1613C12.4467 11.436 12 10.4387 12 9.33332C12 8.22799 12.4467 7.23066 13.172 6.50532C13.8973 5.77999 14.8947 5.33332 16 5.33332C17.1053 5.33332 18.1027 5.77999 18.828 6.50532C19.5533 7.23066 20 8.22799 20 9.33332Z" fill="#626262"/>
</svg>
